<svg version="1.1" id="Layer_1" xmlns="http://www.w3.org/2000/svg" xmlns:xlink="http://www.w3.org/1999/xlink" x="0px" y="0px"
	 width="100%" viewBox="0 0 836 1024" enable-background="new 0 0 836 1024" xml:space="preserve">
<path fill="#F8592E" opacity="1.000000" stroke="none" 
	d="
M218.847336,545.000000 
	C218.843842,591.815063 218.755417,638.130554 218.959381,684.444702 
	C218.981750,689.520813 217.799362,691.500305 212.530579,692.561340 
	C192.924820,696.509949 175.476288,705.233643 160.156738,718.147461 
	C158.804123,719.287720 157.337769,720.293030 155.242996,721.875671 
	C155.242996,587.225891 155.242996,453.434113 155.242996,318.648560 
	C159.127777,321.759949 162.331772,324.568085 165.775833,327.041992 
	C179.704163,337.046936 194.772476,344.646606 211.647552,348.327118 
	C218.842529,349.896332 218.843811,349.900482 218.844406,357.573730 
	C218.847855,401.556396 218.850983,445.539062 218.852493,489.521729 
	C218.853119,507.847809 218.849503,526.173889 218.847336,545.000000 
z"/>
<path fill="#FEFEFE" opacity="1.000000" stroke="none" 
	d="
M751.667603,568.649048 
	C736.715759,585.362915 718.933838,596.114624 696.576050,598.271423 
	C653.979065,602.380798 616.074951,575.261047 606.083008,533.554504 
	C591.537964,472.843292 644.257751,417.340118 705.013184,430.356659 
	C746.683594,439.284302 773.432983,476.457428 771.229248,518.570068 
	C770.251343,537.257996 763.537415,553.790588 751.667603,568.649048 
z"/>
<path fill="#FEFEFE" opacity="1.000000" stroke="none" 
	d="
M161.021454,195.044373 
	C174.225372,164.271606 197.422287,146.464600 229.980667,142.574005 
	C256.927124,139.354004 280.800903,148.127090 299.457672,168.141632 
	C334.296539,205.515869 329.858490,262.270111 290.085632,294.535065 
	C259.623291,319.247009 213.618469,318.051331 184.586670,291.793060 
	C156.721878,266.590271 147.794022,230.278931 161.021454,195.044373 
z"/>
<path fill="#FEFEFE" opacity="1.000000" stroke="none" 
	d="
M287.604065,882.619385 
	C247.689316,911.166077 193.466934,899.645081 168.612747,859.475830 
	C150.084610,829.530762 149.782684,798.147522 168.170364,768.328308 
	C186.013321,739.392395 213.156921,725.713562 247.521942,728.481262 
	C281.317871,731.202942 311.663544,757.730286 319.806793,792.224121 
	C328.455231,828.857910 317.243164,858.960449 287.604065,882.619385 
z"/>
<path fill="#F7592E" opacity="1.000000" stroke="none" 
	d="
M357.552002,781.568359 
	C355.574371,775.838501 353.980377,770.391174 351.776794,765.202881 
	C350.436615,762.047546 350.677216,760.349731 353.695190,758.349976 
	C387.414978,736.006592 421.055939,713.543945 454.681702,691.058960 
	C489.153229,668.008301 523.576477,644.885498 558.037598,621.819336 
	C569.660706,614.039490 581.350708,606.359558 592.971130,598.575745 
	C594.924011,597.267639 596.409546,596.337280 598.510254,598.627014 
	C610.501831,611.697693 625.054749,621.219238 642.369141,629.200806 
	C548.736389,689.927795 455.888641,750.145691 362.904144,810.452209 
	C361.074066,800.473755 359.376343,791.216919 357.552002,781.568359 
z"/>
<path fill="#F5592F" opacity="1.000000" stroke="none" 
	d="
M361.180420,281.778687 
	C358.034943,279.885162 355.200073,278.180389 353.414673,277.106720 
	C356.684998,261.684265 359.798492,247.001465 363.022186,231.798859 
	C452.645508,288.330200 542.623779,345.085449 632.373352,401.696411 
	C620.726318,410.341309 609.464539,418.700226 597.538879,427.551941 
	C519.438110,379.382629 440.464600,330.675049 361.180420,281.778687 
z"/>
<path fill="#CC5E43" opacity="1.000000" stroke="none" 
	d="
M433.644836,656.615723 
	C400.400696,678.815063 367.438965,700.789368 334.484253,722.774231 
	C327.278107,727.581604 327.427826,727.451050 321.031433,721.479492 
	C304.664673,706.199646 285.204742,696.809265 263.408813,692.288940 
	C259.384552,691.454285 258.455200,689.843506 258.457916,686.019287 
	C258.536102,575.861450 258.518951,465.703613 258.427032,355.545807 
	C258.423706,351.570465 258.980682,349.332855 263.655365,348.467224 
	C288.178009,343.926483 308.777100,331.857880 326.130066,314.231537 
	C329.582794,310.724457 331.868958,310.834808 335.775574,313.289490 
	C358.743683,327.721252 381.897369,341.857391 404.966766,356.128326 
	C427.610168,370.135712 450.207550,384.217560 472.862244,398.206635 
	C494.523376,411.582153 516.249329,424.852844 537.913513,438.223419 
	C549.669067,445.478638 561.358521,452.841064 573.069824,460.167755 
	C574.971802,461.357666 576.263000,462.367432 575.066040,465.276367 
	C562.194275,496.557587 561.798157,528.064453 573.853943,559.701355 
	C574.144592,560.464111 574.289978,561.282227 574.649170,562.617920 
	C527.763123,593.863220 480.846466,625.128906 433.644836,656.615723 
M496.261902,611.829285 
	C504.404144,606.486328 512.611816,601.239868 520.670105,595.773193 
	C528.723755,590.309692 536.556885,584.520874 544.618347,579.069458 
	C552.016846,574.066345 559.483276,569.144226 567.131470,564.537842 
	C571.172546,562.103943 571.290833,559.380188 569.745178,555.416260 
	C561.607178,534.545654 561.593750,512.888062 564.636292,491.182007 
	C565.770142,483.093292 568.747498,475.253723 571.015442,467.338135 
	C571.832092,464.487762 571.712646,462.550171 568.757385,460.748383 
	C557.322571,453.776550 546.119202,446.426422 534.736145,439.367981 
	C525.768921,433.807556 516.600586,428.571411 507.636017,423.006958 
	C494.438629,414.815063 481.364319,406.425171 468.196381,398.185425 
	C459.984100,393.046600 451.725647,387.979828 443.433746,382.970306 
	C434.418274,377.523529 425.361969,372.143311 416.281982,366.804657 
	C409.744141,362.960693 403.039886,359.391663 396.592010,355.405334 
	C390.786652,351.816345 385.323639,347.676147 379.543365,344.043610 
	C366.273956,335.704590 352.830811,327.640869 339.600769,319.240845 
	C331.573059,314.143951 331.698425,313.962891 324.499939,319.928802 
	C323.098877,321.089966 321.566620,322.097809 320.205780,323.301727 
	C304.799713,336.931427 287.092133,346.204742 267.076508,350.828003 
	C262.608337,351.860107 260.968201,353.950897 260.969666,358.274231 
	C261.006042,466.730804 261.017303,575.187378 260.931427,683.643860 
	C260.928040,687.910706 262.692139,689.397705 266.622955,690.148132 
	C271.153992,691.013062 275.592499,692.510925 279.962830,694.043091 
	C296.912964,699.985413 312.179474,708.700317 325.106293,721.375000 
	C326.138733,722.387390 329.303802,722.532837 330.636932,721.713257 
	C338.054810,717.153076 345.218689,712.179077 352.457367,707.328491 
	C355.606415,705.218323 358.686279,703.002747 361.867157,700.942505 
	C372.811279,693.854248 383.898987,686.981201 394.715759,679.704651 
	C404.435303,673.166199 413.728607,665.992981 423.464417,659.480164 
	C437.258545,650.252686 451.324371,641.432434 465.201782,632.327942 
	C475.379761,625.650452 485.441589,618.795959 496.261902,611.829285 
z"/>
<path fill="#FD582B" opacity="1.000000" stroke="none" 
	d="
M495.908569,611.924805 
	C485.441589,618.795959 475.379761,625.650452 465.201782,632.327942 
	C451.324371,641.432434 437.258545,650.252686 423.464417,659.480164 
	C413.728607,665.992981 404.435303,673.166199 394.715759,679.704651 
	C383.898987,686.981201 372.811279,693.854248 361.867157,700.942505 
	C358.686279,703.002747 355.606415,705.218323 352.457367,707.328491 
	C345.218689,712.179077 338.054810,717.153076 330.636932,721.713257 
	C329.303802,722.532837 326.138733,722.387390 325.106293,721.375000 
	C312.179474,708.700317 296.912964,699.985413 279.962830,694.043091 
	C275.592499,692.510925 271.153992,691.013062 266.622955,690.148132 
	C262.692139,689.397705 260.928040,687.910706 260.931427,683.643860 
	C261.017303,575.187378 261.006042,466.730804 260.969666,358.274231 
	C260.968201,353.950897 262.608337,351.860107 267.076508,350.828003 
	C287.092133,346.204742 304.799713,336.931427 320.205780,323.301727 
	C321.566620,322.097809 323.098877,321.089966 324.499939,319.928802 
	C331.698425,313.962891 331.573059,314.143951 339.600769,319.240845 
	C352.830811,327.640869 366.273956,335.704590 379.543365,344.043610 
	C385.323639,347.676147 390.786652,351.816345 396.592010,355.405334 
	C403.039886,359.391663 409.744141,362.960693 416.281982,366.804657 
	C425.361969,372.143311 434.418274,377.523529 443.433746,382.970306 
	C451.725647,387.979828 459.984100,393.046600 468.196381,398.185425 
	C481.364319,406.425171 494.438629,414.815063 507.636017,423.006958 
	C516.600586,428.571411 525.768921,433.807556 534.736145,439.367981 
	C546.119202,446.426422 557.322571,453.776550 568.757385,460.748383 
	C571.712646,462.550171 571.832092,464.487762 571.015442,467.338135 
	C568.747498,475.253723 565.770142,483.093292 564.636292,491.182007 
	C561.593750,512.888062 561.607178,534.545654 569.745178,555.416260 
	C571.290833,559.380188 571.172546,562.103943 567.131470,564.537842 
	C559.483276,569.144226 552.016846,574.066345 544.618347,579.069458 
	C536.556885,584.520874 528.723755,590.309692 520.670105,595.773193 
	C512.611816,601.239868 504.404144,606.486328 495.908569,611.924805 
z"/>
</svg>